<svg xmlns="http://www.w3.org/2000/svg" width="78" height="15" fill="none"><path fill="#05C850" d="m7.933 1.118 1.373 2.676a.793.793 0 0 0 .74.515l3.062.412c.845.103 1.162 1.132.634 1.75l-2.218 2.06c-.211.205-.317.617-.317.926l.528 2.882c.106.824-.739 1.442-1.478 1.03L7.51 12.03c-.317-.206-.634-.206-.95 0l-2.746 1.338c-.74.412-1.69-.206-1.479-1.03l.528-2.882c0-.31-.105-.72-.317-.927L.33 6.471c-.634-.618-.317-1.647.633-1.75l3.063-.412c.317 0 .634-.309.74-.515l1.372-2.676c.317-.824 1.373-.824 1.795 0ZM23.933 1.118l1.373 2.676a.793.793 0 0 0 .74.515l3.062.412c.845.103 1.162 1.132.634 1.75l-2.218 2.06c-.211.205-.317.617-.317.926l.528 2.882c.106.824-.739 1.442-1.478 1.03L23.51 12.03c-.317-.206-.634-.206-.95 0l-2.746 1.338c-.74.412-1.69-.206-1.479-1.03l.528-2.882c0-.31-.105-.72-.317-.927L16.33 6.471c-.634-.618-.317-1.647.633-1.75l3.063-.412c.317 0 .634-.309.74-.515l1.372-2.676c.317-.824 1.373-.824 1.795 0ZM39.933 1.118l1.373 2.676a.793.793 0 0 0 .74.515l3.062.412c.845.103 1.162 1.132.634 1.75l-2.218 2.06c-.211.205-.317.617-.317.926l.528 2.882c.106.824-.739 1.442-1.478 1.03L39.51 12.03c-.317-.206-.634-.206-.95 0l-2.746 1.338c-.74.412-1.69-.206-1.479-1.03l.528-2.882c0-.31-.105-.72-.317-.927L32.33 6.471c-.634-.618-.317-1.647.633-1.75l3.063-.412c.317 0 .634-.309.74-.515l1.372-2.676c.317-.824 1.373-.824 1.795 0ZM55.933 1.118l1.373 2.676a.793.793 0 0 0 .74.515l3.062.412c.845.103 1.162 1.132.634 1.75l-2.218 2.06c-.211.205-.317.617-.317.926l.528 2.882c.106.824-.739 1.442-1.478 1.03L55.51 12.03c-.317-.206-.634-.206-.95 0l-2.746 1.338c-.74.412-1.69-.206-1.479-1.03l.528-2.882c0-.31-.105-.72-.317-.927L48.33 6.471c-.634-.618-.317-1.647.633-1.75l3.063-.412c.317 0 .634-.309.74-.515l1.372-2.676c.317-.824 1.373-.824 1.795 0ZM71.933 1.118l1.373 2.676a.793.793 0 0 0 .74.515l3.062.412c.845.103 1.162 1.132.634 1.75l-2.218 2.06c-.211.205-.317.617-.317.926l.528 2.882c.106.824-.739 1.442-1.478 1.03L71.51 12.03c-.317-.206-.634-.206-.95 0l-2.746 1.338c-.74.412-1.69-.206-1.479-1.03l.528-2.882c0-.31-.105-.72-.317-.927L64.33 6.471c-.634-.618-.317-1.647.633-1.75l3.063-.412c.317 0 .634-.309.74-.515l1.372-2.676c.317-.824 1.373-.824 1.795 0Z"/></svg>